# xmcd
# 
# Track frame offsets:
#     150
#     19508
#     43591
#     71391
# 
# Disc length: 1183
# 
# Revision: 1
# Processed by: cddbd v1.5.2PL0 Copyright (c) Steve Scherf et al.
# Submitted via: fre:ac v1.0.17
# 
DISCID=27049d04
DTITLE=Blue Orange Feat. John Finch - Love Is All Around '95
DYEAR=1995
DGENRE=Dance
TTITLE0=Love Is All Around '95 (Radio Edit)
TTITLE1=Love Is All Around '95 (12" Original Wet Mix)
TTITLE2=Love Is All Around '95 (Handbagger's Remix)
TTITLE3=I Got A Feelin'
EXTD=
EXTT0=
EXTT1=
EXTT2=
EXTT3=
PLAYORDER=
